<mxfile host="Electron" modified="2023-10-30T06:14:55.874Z" agent="Mozilla/5.0 (Windows NT 10.0; Win64; x64) AppleWebKit/537.36 (KHTML, like Gecko) draw.io/22.0.3 Chrome/114.0.5735.289 Electron/25.8.4 Safari/537.36" etag="zjnJwojPpSvoA268gn8e" version="22.0.3" type="device">
  <diagram id="yKqC3n3Q5Xr6S6VkeOS2" name="Page-3">
    <mxGraphModel dx="2434" dy="1137" grid="0" gridSize="10" guides="1" tooltips="1" connect="1" arrows="1" fold="1" page="0" pageScale="1" pageWidth="827" pageHeight="1169" math="0" shadow="0">
      <root>
        <mxCell id="0" />
        <mxCell id="1" parent="0" />
        <mxCell id="Rq-hsz7WT9kS5Tk6hUZt-1" value="Student" style="swimlane;fontStyle=0;childLayout=stackLayout;horizontal=1;startSize=30;horizontalStack=0;resizeParent=1;resizeParentMax=0;resizeLast=0;collapsible=1;marginBottom=0;whiteSpace=wrap;html=1;fontSize=16;" parent="1" vertex="1">
          <mxGeometry x="-320" y="-369" width="336" height="270" as="geometry" />
        </mxCell>
        <mxCell id="Rq-hsz7WT9kS5Tk6hUZt-2" value="&amp;nbsp;-ID:String" style="text;strokeColor=none;fillColor=none;align=left;verticalAlign=middle;spacingLeft=4;spacingRight=4;overflow=hidden;points=[[0,0.5],[1,0.5]];portConstraint=eastwest;rotatable=0;whiteSpace=wrap;html=1;fontSize=16;" parent="Rq-hsz7WT9kS5Tk6hUZt-1" vertex="1">
          <mxGeometry y="30" width="336" height="30" as="geometry" />
        </mxCell>
        <mxCell id="Rq-hsz7WT9kS5Tk6hUZt-3" value="-Name:String" style="text;strokeColor=none;fillColor=none;align=left;verticalAlign=middle;spacingLeft=4;spacingRight=4;overflow=hidden;points=[[0,0.5],[1,0.5]];portConstraint=eastwest;rotatable=0;whiteSpace=wrap;html=1;fontSize=16;" parent="Rq-hsz7WT9kS5Tk6hUZt-1" vertex="1">
          <mxGeometry y="60" width="336" height="30" as="geometry" />
        </mxCell>
        <mxCell id="Rq-hsz7WT9kS5Tk6hUZt-4" value="-Email:String" style="text;strokeColor=none;fillColor=none;align=left;verticalAlign=middle;spacingLeft=4;spacingRight=4;overflow=hidden;points=[[0,0.5],[1,0.5]];portConstraint=eastwest;rotatable=0;whiteSpace=wrap;html=1;fontSize=16;" parent="Rq-hsz7WT9kS5Tk6hUZt-1" vertex="1">
          <mxGeometry y="90" width="336" height="30" as="geometry" />
        </mxCell>
        <mxCell id="Rq-hsz7WT9kS5Tk6hUZt-5" value="-Uname:String" style="text;strokeColor=none;fillColor=none;align=left;verticalAlign=middle;spacingLeft=4;spacingRight=4;overflow=hidden;points=[[0,0.5],[1,0.5]];portConstraint=eastwest;rotatable=0;whiteSpace=wrap;html=1;fontSize=16;" parent="Rq-hsz7WT9kS5Tk6hUZt-1" vertex="1">
          <mxGeometry y="120" width="336" height="30" as="geometry" />
        </mxCell>
        <mxCell id="Ht91KHIz6WLJ4nmksi3o-57" value="-Uname:String" style="text;strokeColor=none;fillColor=none;align=left;verticalAlign=middle;spacingLeft=4;spacingRight=4;overflow=hidden;points=[[0,0.5],[1,0.5]];portConstraint=eastwest;rotatable=0;whiteSpace=wrap;html=1;fontSize=16;" vertex="1" parent="Rq-hsz7WT9kS5Tk6hUZt-1">
          <mxGeometry y="150" width="336" height="30" as="geometry" />
        </mxCell>
        <mxCell id="Rq-hsz7WT9kS5Tk6hUZt-6" value="-password:String" style="text;strokeColor=none;fillColor=none;align=left;verticalAlign=middle;spacingLeft=4;spacingRight=4;overflow=hidden;points=[[0,0.5],[1,0.5]];portConstraint=eastwest;rotatable=0;whiteSpace=wrap;html=1;fontSize=16;" parent="Rq-hsz7WT9kS5Tk6hUZt-1" vertex="1">
          <mxGeometry y="180" width="336" height="30" as="geometry" />
        </mxCell>
        <mxCell id="Rq-hsz7WT9kS5Tk6hUZt-7" value="-Registered Course:Course" style="text;strokeColor=none;fillColor=none;align=left;verticalAlign=middle;spacingLeft=4;spacingRight=4;overflow=hidden;points=[[0,0.5],[1,0.5]];portConstraint=eastwest;rotatable=0;whiteSpace=wrap;html=1;fontSize=16;" parent="Rq-hsz7WT9kS5Tk6hUZt-1" vertex="1">
          <mxGeometry y="210" width="336" height="30" as="geometry" />
        </mxCell>
        <mxCell id="Ht91KHIz6WLJ4nmksi3o-74" value="-Graduation Status:Boolean" style="text;strokeColor=none;fillColor=none;align=left;verticalAlign=middle;spacingLeft=4;spacingRight=4;overflow=hidden;points=[[0,0.5],[1,0.5]];portConstraint=eastwest;rotatable=0;whiteSpace=wrap;html=1;fontSize=16;" vertex="1" parent="Rq-hsz7WT9kS5Tk6hUZt-1">
          <mxGeometry y="240" width="336" height="30" as="geometry" />
        </mxCell>
        <mxCell id="Rq-hsz7WT9kS5Tk6hUZt-36" value="Professor" style="swimlane;fontStyle=0;childLayout=stackLayout;horizontal=1;startSize=30;horizontalStack=0;resizeParent=1;resizeParentMax=0;resizeLast=0;collapsible=1;marginBottom=0;whiteSpace=wrap;html=1;fontSize=16;" parent="1" vertex="1">
          <mxGeometry x="167" y="-370" width="336" height="240" as="geometry" />
        </mxCell>
        <mxCell id="Rq-hsz7WT9kS5Tk6hUZt-37" value="&amp;nbsp;-ID:String" style="text;strokeColor=none;fillColor=none;align=left;verticalAlign=middle;spacingLeft=4;spacingRight=4;overflow=hidden;points=[[0,0.5],[1,0.5]];portConstraint=eastwest;rotatable=0;whiteSpace=wrap;html=1;fontSize=16;" parent="Rq-hsz7WT9kS5Tk6hUZt-36" vertex="1">
          <mxGeometry y="30" width="336" height="30" as="geometry" />
        </mxCell>
        <mxCell id="Rq-hsz7WT9kS5Tk6hUZt-38" value="-Name:String" style="text;strokeColor=none;fillColor=none;align=left;verticalAlign=middle;spacingLeft=4;spacingRight=4;overflow=hidden;points=[[0,0.5],[1,0.5]];portConstraint=eastwest;rotatable=0;whiteSpace=wrap;html=1;fontSize=16;" parent="Rq-hsz7WT9kS5Tk6hUZt-36" vertex="1">
          <mxGeometry y="60" width="336" height="30" as="geometry" />
        </mxCell>
        <mxCell id="Rq-hsz7WT9kS5Tk6hUZt-39" value="-Email:String" style="text;strokeColor=none;fillColor=none;align=left;verticalAlign=middle;spacingLeft=4;spacingRight=4;overflow=hidden;points=[[0,0.5],[1,0.5]];portConstraint=eastwest;rotatable=0;whiteSpace=wrap;html=1;fontSize=16;" parent="Rq-hsz7WT9kS5Tk6hUZt-36" vertex="1">
          <mxGeometry y="90" width="336" height="30" as="geometry" />
        </mxCell>
        <mxCell id="Rq-hsz7WT9kS5Tk6hUZt-40" value="-Uname:String" style="text;strokeColor=none;fillColor=none;align=left;verticalAlign=middle;spacingLeft=4;spacingRight=4;overflow=hidden;points=[[0,0.5],[1,0.5]];portConstraint=eastwest;rotatable=0;whiteSpace=wrap;html=1;fontSize=16;" parent="Rq-hsz7WT9kS5Tk6hUZt-36" vertex="1">
          <mxGeometry y="120" width="336" height="30" as="geometry" />
        </mxCell>
        <mxCell id="Rq-hsz7WT9kS5Tk6hUZt-41" value="-password:String" style="text;strokeColor=none;fillColor=none;align=left;verticalAlign=middle;spacingLeft=4;spacingRight=4;overflow=hidden;points=[[0,0.5],[1,0.5]];portConstraint=eastwest;rotatable=0;whiteSpace=wrap;html=1;fontSize=16;" parent="Rq-hsz7WT9kS5Tk6hUZt-36" vertex="1">
          <mxGeometry y="150" width="336" height="30" as="geometry" />
        </mxCell>
        <mxCell id="Rq-hsz7WT9kS5Tk6hUZt-42" value="-Speciality:String" style="text;strokeColor=none;fillColor=none;align=left;verticalAlign=middle;spacingLeft=4;spacingRight=4;overflow=hidden;points=[[0,0.5],[1,0.5]];portConstraint=eastwest;rotatable=0;whiteSpace=wrap;html=1;fontSize=16;" parent="Rq-hsz7WT9kS5Tk6hUZt-36" vertex="1">
          <mxGeometry y="180" width="336" height="30" as="geometry" />
        </mxCell>
        <mxCell id="Ht91KHIz6WLJ4nmksi3o-94" value="-Speciality:String" style="text;strokeColor=none;fillColor=none;align=left;verticalAlign=middle;spacingLeft=4;spacingRight=4;overflow=hidden;points=[[0,0.5],[1,0.5]];portConstraint=eastwest;rotatable=0;whiteSpace=wrap;html=1;fontSize=16;" vertex="1" parent="Rq-hsz7WT9kS5Tk6hUZt-36">
          <mxGeometry y="210" width="336" height="30" as="geometry" />
        </mxCell>
        <mxCell id="Ht91KHIz6WLJ4nmksi3o-81" style="edgeStyle=orthogonalEdgeStyle;rounded=0;orthogonalLoop=1;jettySize=auto;html=1;exitX=0.5;exitY=1;exitDx=0;exitDy=0;startArrow=ERmany;startFill=0;endArrow=ERmany;endFill=0;" edge="1" parent="1" source="Rq-hsz7WT9kS5Tk6hUZt-48" target="Ht91KHIz6WLJ4nmksi3o-20">
          <mxGeometry relative="1" as="geometry" />
        </mxCell>
        <mxCell id="Rq-hsz7WT9kS5Tk6hUZt-48" value="&lt;p style=&quot;line-height: 170%;&quot;&gt;+Professor Signin:(Professor:Professor)&lt;br&gt;+Add&amp;nbsp; Course()&lt;br&gt;+View Course()&lt;br&gt;+Employeer FeedBack()&lt;/p&gt;" style="rounded=0;whiteSpace=wrap;html=1;fontSize=16;align=left;" parent="1" vertex="1">
          <mxGeometry x="167" y="-160" width="336" height="109" as="geometry" />
        </mxCell>
        <mxCell id="Ht91KHIz6WLJ4nmksi3o-10" value="Professor Directory" style="swimlane;fontStyle=0;childLayout=stackLayout;horizontal=1;startSize=30;horizontalStack=0;resizeParent=1;resizeParentMax=0;resizeLast=0;collapsible=1;marginBottom=0;whiteSpace=wrap;html=1;fontSize=16;" vertex="1" parent="1">
          <mxGeometry x="743" y="-273" width="336" height="61" as="geometry" />
        </mxCell>
        <mxCell id="Ht91KHIz6WLJ4nmksi3o-93" value="&lt;font style=&quot;font-size: 16px;&quot;&gt;.-Professor:List&amp;lt;Professor&amp;gt;&lt;/font&gt;" style="text;html=1;align=left;verticalAlign=middle;resizable=0;points=[];autosize=1;strokeColor=none;fillColor=none;" vertex="1" parent="Ht91KHIz6WLJ4nmksi3o-10">
          <mxGeometry y="30" width="336" height="31" as="geometry" />
        </mxCell>
        <mxCell id="Ht91KHIz6WLJ4nmksi3o-20" value="Course" style="swimlane;fontStyle=0;childLayout=stackLayout;horizontal=1;startSize=30;horizontalStack=0;resizeParent=1;resizeParentMax=0;resizeLast=0;collapsible=1;marginBottom=0;whiteSpace=wrap;html=1;fontSize=16;" vertex="1" parent="1">
          <mxGeometry x="167" y="64" width="336" height="254" as="geometry" />
        </mxCell>
        <mxCell id="Ht91KHIz6WLJ4nmksi3o-21" value="&amp;nbsp;-ID:String" style="text;strokeColor=none;fillColor=none;align=left;verticalAlign=middle;spacingLeft=4;spacingRight=4;overflow=hidden;points=[[0,0.5],[1,0.5]];portConstraint=eastwest;rotatable=0;whiteSpace=wrap;html=1;fontSize=16;" vertex="1" parent="Ht91KHIz6WLJ4nmksi3o-20">
          <mxGeometry y="30" width="336" height="30" as="geometry" />
        </mxCell>
        <mxCell id="Ht91KHIz6WLJ4nmksi3o-22" value="-Name:String" style="text;strokeColor=none;fillColor=none;align=left;verticalAlign=middle;spacingLeft=4;spacingRight=4;overflow=hidden;points=[[0,0.5],[1,0.5]];portConstraint=eastwest;rotatable=0;whiteSpace=wrap;html=1;fontSize=16;" vertex="1" parent="Ht91KHIz6WLJ4nmksi3o-20">
          <mxGeometry y="60" width="336" height="30" as="geometry" />
        </mxCell>
        <mxCell id="Ht91KHIz6WLJ4nmksi3o-23" value="-Professor:String" style="text;strokeColor=none;fillColor=none;align=left;verticalAlign=middle;spacingLeft=4;spacingRight=4;overflow=hidden;points=[[0,0.5],[1,0.5]];portConstraint=eastwest;rotatable=0;whiteSpace=wrap;html=1;fontSize=16;" vertex="1" parent="Ht91KHIz6WLJ4nmksi3o-20">
          <mxGeometry y="90" width="336" height="30" as="geometry" />
        </mxCell>
        <mxCell id="Ht91KHIz6WLJ4nmksi3o-24" value="-ProfId:String" style="text;strokeColor=none;fillColor=none;align=left;verticalAlign=middle;spacingLeft=4;spacingRight=4;overflow=hidden;points=[[0,0.5],[1,0.5]];portConstraint=eastwest;rotatable=0;whiteSpace=wrap;html=1;fontSize=16;" vertex="1" parent="Ht91KHIz6WLJ4nmksi3o-20">
          <mxGeometry y="120" width="336" height="30" as="geometry" />
        </mxCell>
        <mxCell id="Ht91KHIz6WLJ4nmksi3o-25" value="-Term:String" style="text;strokeColor=none;fillColor=none;align=left;verticalAlign=middle;spacingLeft=4;spacingRight=4;overflow=hidden;points=[[0,0.5],[1,0.5]];portConstraint=eastwest;rotatable=0;whiteSpace=wrap;html=1;fontSize=16;" vertex="1" parent="Ht91KHIz6WLJ4nmksi3o-20">
          <mxGeometry y="150" width="336" height="40" as="geometry" />
        </mxCell>
        <mxCell id="Ht91KHIz6WLJ4nmksi3o-28" value="-Time:String" style="text;strokeColor=none;fillColor=none;align=left;verticalAlign=middle;spacingLeft=4;spacingRight=4;overflow=hidden;points=[[0,0.5],[1,0.5]];portConstraint=eastwest;rotatable=0;whiteSpace=wrap;html=1;fontSize=16;" vertex="1" parent="Ht91KHIz6WLJ4nmksi3o-20">
          <mxGeometry y="190" width="336" height="32" as="geometry" />
        </mxCell>
        <mxCell id="Ht91KHIz6WLJ4nmksi3o-29" value="-Course:List&amp;lt;Course&amp;gt;" style="text;strokeColor=none;fillColor=none;align=left;verticalAlign=middle;spacingLeft=4;spacingRight=4;overflow=hidden;points=[[0,0.5],[1,0.5]];portConstraint=eastwest;rotatable=0;whiteSpace=wrap;html=1;fontSize=16;" vertex="1" parent="Ht91KHIz6WLJ4nmksi3o-20">
          <mxGeometry y="222" width="336" height="32" as="geometry" />
        </mxCell>
        <mxCell id="Ht91KHIz6WLJ4nmksi3o-30" value="Course Schedule" style="swimlane;fontStyle=0;childLayout=stackLayout;horizontal=1;startSize=30;horizontalStack=0;resizeParent=1;resizeParentMax=0;resizeLast=0;collapsible=1;marginBottom=0;whiteSpace=wrap;html=1;fontSize=16;" vertex="1" parent="1">
          <mxGeometry x="164" y="458" width="336" height="254" as="geometry" />
        </mxCell>
        <mxCell id="Ht91KHIz6WLJ4nmksi3o-32" value="-Name:String" style="text;strokeColor=none;fillColor=none;align=left;verticalAlign=middle;spacingLeft=4;spacingRight=4;overflow=hidden;points=[[0,0.5],[1,0.5]];portConstraint=eastwest;rotatable=0;whiteSpace=wrap;html=1;fontSize=16;" vertex="1" parent="Ht91KHIz6WLJ4nmksi3o-30">
          <mxGeometry y="30" width="336" height="30" as="geometry" />
        </mxCell>
        <mxCell id="Ht91KHIz6WLJ4nmksi3o-33" value="-Professor:String" style="text;strokeColor=none;fillColor=none;align=left;verticalAlign=middle;spacingLeft=4;spacingRight=4;overflow=hidden;points=[[0,0.5],[1,0.5]];portConstraint=eastwest;rotatable=0;whiteSpace=wrap;html=1;fontSize=16;" vertex="1" parent="Ht91KHIz6WLJ4nmksi3o-30">
          <mxGeometry y="60" width="336" height="30" as="geometry" />
        </mxCell>
        <mxCell id="Ht91KHIz6WLJ4nmksi3o-34" value="-ProfId:String" style="text;strokeColor=none;fillColor=none;align=left;verticalAlign=middle;spacingLeft=4;spacingRight=4;overflow=hidden;points=[[0,0.5],[1,0.5]];portConstraint=eastwest;rotatable=0;whiteSpace=wrap;html=1;fontSize=16;" vertex="1" parent="Ht91KHIz6WLJ4nmksi3o-30">
          <mxGeometry y="90" width="336" height="30" as="geometry" />
        </mxCell>
        <mxCell id="Ht91KHIz6WLJ4nmksi3o-31" value="&amp;nbsp;-ID:String" style="text;strokeColor=none;fillColor=none;align=left;verticalAlign=middle;spacingLeft=4;spacingRight=4;overflow=hidden;points=[[0,0.5],[1,0.5]];portConstraint=eastwest;rotatable=0;whiteSpace=wrap;html=1;fontSize=16;" vertex="1" parent="Ht91KHIz6WLJ4nmksi3o-30">
          <mxGeometry y="120" width="336" height="30" as="geometry" />
        </mxCell>
        <mxCell id="Ht91KHIz6WLJ4nmksi3o-37" value="-Course:List&amp;lt;Course&amp;gt;" style="text;strokeColor=none;fillColor=none;align=left;verticalAlign=middle;spacingLeft=4;spacingRight=4;overflow=hidden;points=[[0,0.5],[1,0.5]];portConstraint=eastwest;rotatable=0;whiteSpace=wrap;html=1;fontSize=16;" vertex="1" parent="Ht91KHIz6WLJ4nmksi3o-30">
          <mxGeometry y="150" width="336" height="32" as="geometry" />
        </mxCell>
        <mxCell id="Ht91KHIz6WLJ4nmksi3o-36" value="-Time:String" style="text;strokeColor=none;fillColor=none;align=left;verticalAlign=middle;spacingLeft=4;spacingRight=4;overflow=hidden;points=[[0,0.5],[1,0.5]];portConstraint=eastwest;rotatable=0;whiteSpace=wrap;html=1;fontSize=16;" vertex="1" parent="Ht91KHIz6WLJ4nmksi3o-30">
          <mxGeometry y="182" width="336" height="32" as="geometry" />
        </mxCell>
        <mxCell id="Ht91KHIz6WLJ4nmksi3o-35" value="-Term:String" style="text;strokeColor=none;fillColor=none;align=left;verticalAlign=middle;spacingLeft=4;spacingRight=4;overflow=hidden;points=[[0,0.5],[1,0.5]];portConstraint=eastwest;rotatable=0;whiteSpace=wrap;html=1;fontSize=16;" vertex="1" parent="Ht91KHIz6WLJ4nmksi3o-30">
          <mxGeometry y="214" width="336" height="40" as="geometry" />
        </mxCell>
        <mxCell id="Ht91KHIz6WLJ4nmksi3o-46" value="Transcript" style="swimlane;fontStyle=0;childLayout=stackLayout;horizontal=1;startSize=30;horizontalStack=0;resizeParent=1;resizeParentMax=0;resizeLast=0;collapsible=1;marginBottom=0;whiteSpace=wrap;html=1;fontSize=16;" vertex="1" parent="1">
          <mxGeometry x="-320" y="58" width="336" height="150" as="geometry" />
        </mxCell>
        <mxCell id="Ht91KHIz6WLJ4nmksi3o-47" value="-TranscriptId:String" style="text;strokeColor=none;fillColor=none;align=left;verticalAlign=middle;spacingLeft=4;spacingRight=4;overflow=hidden;points=[[0,0.5],[1,0.5]];portConstraint=eastwest;rotatable=0;whiteSpace=wrap;html=1;fontSize=16;" vertex="1" parent="Ht91KHIz6WLJ4nmksi3o-46">
          <mxGeometry y="30" width="336" height="30" as="geometry" />
        </mxCell>
        <mxCell id="Ht91KHIz6WLJ4nmksi3o-48" value="-Student: Student" style="text;strokeColor=none;fillColor=none;align=left;verticalAlign=middle;spacingLeft=4;spacingRight=4;overflow=hidden;points=[[0,0.5],[1,0.5]];portConstraint=eastwest;rotatable=0;whiteSpace=wrap;html=1;fontSize=16;" vertex="1" parent="Ht91KHIz6WLJ4nmksi3o-46">
          <mxGeometry y="60" width="336" height="30" as="geometry" />
        </mxCell>
        <mxCell id="Ht91KHIz6WLJ4nmksi3o-49" value="-Course: course" style="text;strokeColor=none;fillColor=none;align=left;verticalAlign=middle;spacingLeft=4;spacingRight=4;overflow=hidden;points=[[0,0.5],[1,0.5]];portConstraint=eastwest;rotatable=0;whiteSpace=wrap;html=1;fontSize=16;" vertex="1" parent="Ht91KHIz6WLJ4nmksi3o-46">
          <mxGeometry y="90" width="336" height="30" as="geometry" />
        </mxCell>
        <mxCell id="Ht91KHIz6WLJ4nmksi3o-54" value="-Status: Boolean" style="text;strokeColor=none;fillColor=none;align=left;verticalAlign=middle;spacingLeft=4;spacingRight=4;overflow=hidden;points=[[0,0.5],[1,0.5]];portConstraint=eastwest;rotatable=0;whiteSpace=wrap;html=1;fontSize=16;" vertex="1" parent="Ht91KHIz6WLJ4nmksi3o-46">
          <mxGeometry y="120" width="336" height="30" as="geometry" />
        </mxCell>
        <mxCell id="Ht91KHIz6WLJ4nmksi3o-59" value="" style="endArrow=none;html=1;rounded=0;exitX=1;exitY=0.5;exitDx=0;exitDy=0;entryX=0;entryY=0.5;entryDx=0;entryDy=0;startArrow=ERmany;startFill=0;" edge="1" parent="1" source="Rq-hsz7WT9kS5Tk6hUZt-6" target="Rq-hsz7WT9kS5Tk6hUZt-42">
          <mxGeometry width="50" height="50" relative="1" as="geometry">
            <mxPoint x="41" y="-99" as="sourcePoint" />
            <mxPoint x="91" y="-149" as="targetPoint" />
          </mxGeometry>
        </mxCell>
        <mxCell id="Ht91KHIz6WLJ4nmksi3o-77" style="edgeStyle=orthogonalEdgeStyle;rounded=0;orthogonalLoop=1;jettySize=auto;html=1;exitX=0.5;exitY=1;exitDx=0;exitDy=0;endArrow=ERone;endFill=0;startArrow=ERone;startFill=0;" edge="1" parent="1" source="Ht91KHIz6WLJ4nmksi3o-68" target="Ht91KHIz6WLJ4nmksi3o-46">
          <mxGeometry relative="1" as="geometry" />
        </mxCell>
        <mxCell id="Ht91KHIz6WLJ4nmksi3o-68" value="&lt;p style=&quot;line-height: 40%;&quot;&gt;+Registered Courses:(Course:Course)&lt;br&gt;&lt;/p&gt;&lt;p style=&quot;line-height: 40%;&quot;&gt;+Student signup:(Student :Student)&lt;br&gt;&lt;/p&gt;" style="rounded=0;whiteSpace=wrap;html=1;fontSize=16;align=left;strokeWidth=1;spacing=3;spacingRight=-1;spacingLeft=2;spacingBottom=6;spacingTop=6;" vertex="1" parent="1">
          <mxGeometry x="-320" y="-99" width="336" height="64" as="geometry" />
        </mxCell>
        <mxCell id="Ht91KHIz6WLJ4nmksi3o-75" value="Student Directory" style="swimlane;fontStyle=0;childLayout=stackLayout;horizontal=1;startSize=30;horizontalStack=0;resizeParent=1;resizeParentMax=0;resizeLast=0;collapsible=1;marginBottom=0;whiteSpace=wrap;html=1;fontSize=16;" vertex="1" parent="1">
          <mxGeometry x="-857" y="-230" width="336" height="61" as="geometry" />
        </mxCell>
        <mxCell id="Ht91KHIz6WLJ4nmksi3o-76" value="&lt;font style=&quot;font-size: 16px;&quot;&gt;.-Students:List&amp;lt;Student&amp;gt;&lt;/font&gt;" style="text;html=1;align=left;verticalAlign=middle;resizable=0;points=[];autosize=1;strokeColor=none;fillColor=none;" vertex="1" parent="Ht91KHIz6WLJ4nmksi3o-75">
          <mxGeometry y="30" width="336" height="31" as="geometry" />
        </mxCell>
        <mxCell id="Ht91KHIz6WLJ4nmksi3o-85" value="" style="endArrow=ERmany;html=1;rounded=0;entryX=0.503;entryY=1.067;entryDx=0;entryDy=0;entryPerimeter=0;exitX=0.5;exitY=0;exitDx=0;exitDy=0;startArrow=ERmany;startFill=0;endFill=0;" edge="1" parent="1" source="Ht91KHIz6WLJ4nmksi3o-30" target="Ht91KHIz6WLJ4nmksi3o-29">
          <mxGeometry width="50" height="50" relative="1" as="geometry">
            <mxPoint x="295" y="404" as="sourcePoint" />
            <mxPoint x="345" y="354" as="targetPoint" />
          </mxGeometry>
        </mxCell>
        <mxCell id="Ht91KHIz6WLJ4nmksi3o-89" style="edgeStyle=orthogonalEdgeStyle;rounded=0;orthogonalLoop=1;jettySize=auto;html=1;entryX=0.994;entryY=0.037;entryDx=0;entryDy=0;entryPerimeter=0;endArrow=ERmany;endFill=0;startArrow=ERone;startFill=0;" edge="1" parent="1" target="Ht91KHIz6WLJ4nmksi3o-76">
          <mxGeometry relative="1" as="geometry">
            <mxPoint x="-320" y="-200" as="sourcePoint" />
            <mxPoint x="-644" y="-200" as="targetPoint" />
          </mxGeometry>
        </mxCell>
        <mxCell id="Ht91KHIz6WLJ4nmksi3o-95" style="edgeStyle=orthogonalEdgeStyle;rounded=0;orthogonalLoop=1;jettySize=auto;html=1;startArrow=ERone;startFill=0;endArrow=ERmany;endFill=0;" edge="1" parent="1">
          <mxGeometry relative="1" as="geometry">
            <mxPoint x="503" y="-250" as="sourcePoint" />
            <mxPoint x="742" y="-249" as="targetPoint" />
          </mxGeometry>
        </mxCell>
        <mxCell id="Ht91KHIz6WLJ4nmksi3o-96" style="edgeStyle=orthogonalEdgeStyle;rounded=0;orthogonalLoop=1;jettySize=auto;html=1;entryX=0;entryY=0.5;entryDx=0;entryDy=0;startArrow=ERmany;startFill=0;endArrow=ERmany;endFill=0;" edge="1" parent="1" source="Ht91KHIz6WLJ4nmksi3o-74" target="Ht91KHIz6WLJ4nmksi3o-22">
          <mxGeometry relative="1" as="geometry" />
        </mxCell>
      </root>
    </mxGraphModel>
  </diagram>
</mxfile>
